<svg id="visual" viewBox="0 0 900 390" width="900" height="390" xmlns="http://www.w3.org/2000/svg" xmlns:xlink="http://www.w3.org/1999/xlink" version="1.1"><rect x="0" y="0" width="900" height="390" fill="#292929"></rect><path d="M0 154L69 164L138 108L208 106L277 154L346 135L415 167L485 118L554 130L623 160L692 154L762 153L831 152L900 167L900 0L831 0L762 0L692 0L623 0L554 0L485 0L415 0L346 0L277 0L208 0L138 0L69 0L0 0Z" fill="#81a62a"></path><path d="M0 101L69 144L138 121L208 100L277 99L346 152L415 117L485 127L554 102L623 116L692 140L762 145L831 106L900 138L900 0L831 0L762 0L692 0L623 0L554 0L485 0L415 0L346 0L277 0L208 0L138 0L69 0L0 0Z" fill="#86ad2c"></path><path d="M0 87L69 136L138 88L208 101L277 82L346 97L415 105L485 114L554 113L623 109L692 104L762 98L831 138L900 116L900 0L831 0L762 0L692 0L623 0L554 0L485 0L415 0L346 0L277 0L208 0L138 0L69 0L0 0Z" fill="#8bb32d"></path><path d="M0 118L69 109L138 100L208 73L277 100L346 97L415 102L485 87L554 99L623 113L692 97L762 77L831 76L900 99L900 0L831 0L762 0L692 0L623 0L554 0L485 0L415 0L346 0L277 0L208 0L138 0L69 0L0 0Z" fill="#90ba2f"></path><path d="M0 97L69 96L138 85L208 94L277 104L346 65L415 105L485 76L554 82L623 85L692 99L762 79L831 66L900 76L900 0L831 0L762 0L692 0L623 0L554 0L485 0L415 0L346 0L277 0L208 0L138 0L69 0L0 0Z" fill="#95c130"></path><path d="M0 76L69 61L138 79L208 52L277 87L346 52L415 59L485 51L554 84L623 88L692 87L762 73L831 71L900 56L900 0L831 0L762 0L692 0L623 0L554 0L485 0L415 0L346 0L277 0L208 0L138 0L69 0L0 0Z" fill="#9ac732"></path><path d="M0 53L69 39L138 53L208 65L277 72L346 74L415 58L485 65L554 68L623 75L692 63L762 72L831 43L900 57L900 0L831 0L762 0L692 0L623 0L554 0L485 0L415 0L346 0L277 0L208 0L138 0L69 0L0 0Z" fill="#9fce34"></path><path d="M0 39L69 45L138 34L208 57L277 32L346 41L415 34L485 30L554 51L623 41L692 56L762 33L831 54L900 59L900 0L831 0L762 0L692 0L623 0L554 0L485 0L415 0L346 0L277 0L208 0L138 0L69 0L0 0Z" fill="#a4d535"></path><path d="M0 19L69 41L138 35L208 36L277 38L346 36L415 30L485 39L554 43L623 24L692 39L762 19L831 36L900 25L900 0L831 0L762 0L692 0L623 0L554 0L485 0L415 0L346 0L277 0L208 0L138 0L69 0L0 0Z" fill="#a9db37"></path><path d="M0 14L69 9L138 26L208 19L277 10L346 19L415 14L485 25L554 18L623 24L692 19L762 8L831 15L900 20L900 0L831 0L762 0L692 0L623 0L554 0L485 0L415 0L346 0L277 0L208 0L138 0L69 0L0 0Z" fill="#aee239"></path></svg>