<svg id="visual" viewBox="0 0 900 390" width="900" height="390" xmlns="http://www.w3.org/2000/svg" xmlns:xlink="http://www.w3.org/1999/xlink" version="1.1"><rect x="0" y="0" width="900" height="390" fill="#292929"></rect><path d="M0 259L69 282L138 250L208 285L277 281L346 244L415 272L485 251L554 264L623 281L692 279L762 265L831 239L900 243L900 391L831 391L762 391L692 391L623 391L554 391L485 391L415 391L346 391L277 391L208 391L138 391L69 391L0 391Z" fill="#81a62a"></path><path d="M0 251L69 247L138 276L208 295L277 260L346 267L415 258L485 247L554 253L623 242L692 264L762 277L831 235L900 235L900 391L831 391L762 391L692 391L623 391L554 391L485 391L415 391L346 391L277 391L208 391L138 391L69 391L0 391Z" fill="#86ad2c"></path><path d="M0 254L69 266L138 286L208 302L277 256L346 287L415 281L485 294L554 297L623 288L692 305L762 277L831 275L900 294L900 391L831 391L762 391L692 391L623 391L554 391L485 391L415 391L346 391L277 391L208 391L138 391L69 391L0 391Z" fill="#8bb32d"></path><path d="M0 294L69 316L138 275L208 285L277 279L346 273L415 311L485 317L554 278L623 275L692 305L762 271L831 296L900 299L900 391L831 391L762 391L692 391L623 391L554 391L485 391L415 391L346 391L277 391L208 391L138 391L69 391L0 391Z" fill="#90ba2f"></path><path d="M0 295L69 298L138 302L208 323L277 290L346 297L415 317L485 284L554 305L623 288L692 294L762 283L831 288L900 291L900 391L831 391L762 391L692 391L623 391L554 391L485 391L415 391L346 391L277 391L208 391L138 391L69 391L0 391Z" fill="#95c130"></path><path d="M0 325L69 327L138 309L208 312L277 306L346 314L415 339L485 333L554 309L623 325L692 317L762 331L831 318L900 298L900 391L831 391L762 391L692 391L623 391L554 391L485 391L415 391L346 391L277 391L208 391L138 391L69 391L0 391Z" fill="#9ac732"></path><path d="M0 318L69 326L138 341L208 321L277 322L346 339L415 334L485 329L554 322L623 324L692 325L762 321L831 347L900 342L900 391L831 391L762 391L692 391L623 391L554 391L485 391L415 391L346 391L277 391L208 391L138 391L69 391L0 391Z" fill="#9fce34"></path><path d="M0 360L69 353L138 339L208 332L277 334L346 359L415 353L485 344L554 351L623 335L692 329L762 352L831 353L900 334L900 391L831 391L762 391L692 391L623 391L554 391L485 391L415 391L346 391L277 391L208 391L138 391L69 391L0 391Z" fill="#a4d535"></path><path d="M0 370L69 365L138 366L208 357L277 355L346 347L415 359L485 365L554 359L623 370L692 356L762 351L831 347L900 348L900 391L831 391L762 391L692 391L623 391L554 391L485 391L415 391L346 391L277 391L208 391L138 391L69 391L0 391Z" fill="#a9db37"></path><path d="M0 378L69 375L138 375L208 382L277 368L346 381L415 370L485 362L554 371L623 375L692 366L762 367L831 376L900 374L900 391L831 391L762 391L692 391L623 391L554 391L485 391L415 391L346 391L277 391L208 391L138 391L69 391L0 391Z" fill="#aee239"></path></svg>